Coordinates
version=1
nRows=12
nColumns=24
inDegrees=yes

Units are S.I. units (second, meters, Newtons, ...)
Angles are in degrees.

endheader
time	pelvis_tilt	pelvis_list	pelvis_rotation	pelvis_tx	pelvis_ty	pelvis_tz	hip_flexion_r	hip_adduction_r	hip_rotation_r	knee_angle_r	ankle_angle_r	subtalar_angle_r	mtp_angle_r	hip_flexion_l	hip_adduction_l	hip_rotation_l	knee_angle_l	ankle_angle_l	subtalar_angle_l	mtp_angle_l	lumbar_extension	lumbar_bending	lumbar_rotation
      3.24500000	     23.60097056	     -2.98745900	      7.37107578	      0.31097915	      1.03874104	      0.05152301	    -18.63287946	      7.88191997	    -11.28267156	     -9.63674309	      8.59627752	     -8.60074365	      7.22868694	     -9.12953377	    -11.99420361	     -3.91156611	    -55.62786794	     -1.19272787	    -13.11197979	     43.28089919	    -38.20385654	      5.81359418	      1.55474576
      3.25000000	     23.63754631	     -2.92955281	      7.28057189	      0.31567714	      1.03911835	      0.05199303	    -19.10892687	      7.88253440	    -11.12783951	     -9.39152293	      8.71572991	     -8.60764792	      7.19529419	     -8.60664195	    -11.93141789	     -4.16091381	    -55.51155594	     -0.80727521	    -12.86541946	     43.10364650	    -38.25106283	      5.72049638	      1.67420179
      3.25500000	     23.62561780	     -2.89809638	      7.18484943	      0.32034068	      1.03942373	      0.05245390	    -19.52714056	      7.90126013	    -10.91993703	     -9.14668310	      8.85225639	     -8.61532714	      6.64671291	     -8.02770408	    -11.87985212	     -4.40590420	    -55.38796577	     -0.22823184	    -12.34298054	     40.06459433	    -38.24976560	      5.64686507	      1.79412297
      3.26000000	     23.65943926	     -2.80454944	      7.06616947	      0.32502270	      1.03979409	      0.05289142	    -19.99884047	      7.84487915	    -10.78142509	     -8.91598325	      8.98690120	     -8.59607895	      6.64430415	     -7.56338545	    -11.74685166	     -4.66912842	    -55.11532014	      0.11116368	    -12.10216083	     40.06483199	    -38.30055898	      5.50920714	      1.89912453
      3.26500000	     23.69791294	     -2.72997000	      6.92278353	      0.32971253	      1.04015613	      0.05335938	    -20.47888157	      7.79892978	    -10.59065792	     -8.67631180	      9.10374800	     -8.57701917	      6.63011098	     -7.13617986	    -11.62994081	     -4.97175220	    -54.76998997	      0.43925088	    -11.82307825	     40.00730487	    -38.35651301	      5.37478677	      2.03324445
      3.27000000	     23.76806313	     -2.66180234	      6.76116324	      0.33438770	      1.04053854	      0.05384884	    -21.00218485	      7.75571039	    -10.35288553	     -8.41587128	      9.19850306	     -8.56528520	      6.58694466	     -6.77237334	    -11.51978695	     -5.30616498	    -54.35592194	      0.73292166	    -11.50978866	     39.81017434	    -38.44891142	      5.23767090	      2.17595700
      3.27500000	     23.86209923	     -2.57331826	      6.58838046	      0.33906966	      1.04094908	      0.05428445	    -21.55259503	      7.68144774	    -10.15032457	     -8.16045955	      9.27376481	     -8.55705639	      6.46028296	     -6.48085775	    -11.36583824	     -5.64646672	    -53.84989186	      1.13209221	    -11.25133858	     39.19659057	    -38.56720755	      5.08198701	      2.33753142
      3.28000000	     23.92656296	     -2.41953179	      6.44607767	      0.34369850	      1.04132606	      0.05466932	    -22.07258796	      7.54738116	     -9.97780976	     -7.91039880	      9.45084685	     -8.55884080	      6.06833619	     -6.16226660	    -11.11985320	     -5.90750218	    -53.29340580	      1.51809869	    -10.84485572	     37.19103037	    -38.66238336	      4.88075123	      2.38505481
      3.28500000	     23.88988991	     -2.33737787	      6.28796936	      0.34831416	      1.04150595	      0.05504472	    -22.43601148	      7.45452091	     -9.84953503	     -7.73366990	      9.62458267	     -8.45189161	      6.07610188	     -5.73583002	    -10.94547253	     -6.21302487	    -52.70283631	      1.83990244	    -10.56422193	     37.16363981	    -38.64804844	      4.73348456	      2.50411919
      3.29000000	     24.00808943	     -2.23089682	      6.10594998	      0.35298909	      1.04189862	      0.05542985	    -23.01863065	      7.34604072	     -9.66202852	     -7.46954393	      9.71030779	     -8.36850100	      6.01200652	     -5.55507379	    -10.75324052	     -6.57500426	    -51.97707390	      2.14011655	    -10.32030888	     36.83457700	    -38.79387518	      4.56066717	      2.62481850
      3.29500000	     24.00041171	     -2.10100709	      5.95771667	      0.35756067	      1.04208672	      0.05576484	    -23.42351553	      7.20944727	     -9.53255024	     -7.27564421	      9.89024624	     -8.32875332	      6.00513035	     -5.21395205	    -10.50678444	     -6.84634620	    -51.23553635	      2.38466870	    -10.05056178	     36.73287860	    -38.81849773	      4.37507969	      2.69393970
      3.30000000	     24.16547544	     -1.92600860	      5.80951670	      0.36221218	      1.04251295	      0.05602373	    -24.07594485	      7.04123999	     -9.40940663	     -6.98431615	     10.01922446	     -8.22233383	      5.75440166	     -5.14016247	    -10.21107937	     -7.14496966	    -50.35567723	      2.68151641	     -9.84576377	     35.35518802	    -39.01811389	      4.16714502	      2.72695068
